<?xml version="1.0" standalone="no"?>
<!DOCTYPE svg PUBLIC "-//W3C//DTD SVG 20010904//EN"
 "http://www.w3.org/TR/2001/REC-SVG-20010904/DTD/svg10.dtd">
<svg version="1.0" xmlns="http://www.w3.org/2000/svg"
 width="50" height="50" viewBox="0 0 500.000000 500.000000"
 preserveAspectRatio="xMidYMid meet">

<g transform="translate(0.000000,500.000000) scale(0.100000,-0.100000)"
fill="#ffffff" stroke="none">
<path d="M1998 4104 c-78 -18 -170 -67 -224 -116 l-45 -42 -54 27 c-74 36
-201 67 -275 67 -270 0 -548 -236 -660 -560 -22 -61 -23 -87 -30 -455 -10
-524 -25 -594 -140 -659 -50 -28 -63 -31 -140 -30 -113 1 -157 21 -265 125
l-85 82 0 -57 c0 -67 30 -163 72 -228 64 -101 190 -193 297 -217 24 -5 45 -12
48 -15 3 -3 1 -31 -6 -62 -16 -80 -14 -227 4 -303 49 -207 213 -373 420 -426
76 -19 224 -19 300 0 203 53 356 202 394 383 12 60 15 239 4 245 -5 2 -78 2
-165 -1 l-156 -4 -4 -90 -3 -89 -41 -39 c-54 -50 -111 -66 -180 -51 -121 27
-186 126 -185 281 0 89 15 147 64 250 32 68 56 101 121 166 67 67 97 89 176
127 121 58 189 76 320 84 125 7 207 -10 276 -58 54 -37 109 -117 123 -179 6
-27 11 -242 11 -547 0 -330 4 -511 11 -530 14 -38 46 -71 91 -94 34 -17 61
-19 283 -19 278 0 290 2 348 70 45 53 57 106 57 250 0 213 75 347 236 422 248
116 541 -17 610 -276 8 -28 14 -99 14 -158 0 -180 25 -245 111 -288 35 -18 60
-20 289 -20 200 0 257 3 279 14 47 25 88 80 100 136 7 34 11 289 11 785 0 404
4 735 8 735 5 0 28 -14 50 -30 47 -34 94 -94 126 -160 20 -44 21 -60 26 -610
l5 -565 26 -56 c34 -73 85 -128 148 -163 28 -15 51 -25 51 -22 0 3 -16 26 -35
52 -66 86 -64 63 -68 959 -4 855 -5 870 -53 1033 -22 79 -83 206 -139 292 -63
97 -238 272 -339 340 -96 64 -252 139 -362 173 -179 57 -222 60 -726 64 -258
3 -468 2 -468 -1 0 -3 14 -25 31 -50 70 -105 113 -260 130 -469 12 -154 1
-354 -26 -457 -64 -247 -263 -449 -501 -510 -146 -38 -281 -23 -424 47 -78 37
-109 60 -170 122 -72 73 -135 164 -142 206 -3 20 51 57 103 70 24 6 29 1 57
-47 90 -161 246 -258 413 -258 76 0 199 33 267 72 78 44 162 133 201 213 55
111 75 231 75 440 -1 152 -4 192 -22 260 -52 190 -139 306 -284 375 -127 61
-245 75 -370 44z"/>
</g>
</svg>
